<svg width="16" height="16" viewBox="0 0 16 16" fill="none" xmlns="http://www.w3.org/2000/svg">
<path fill-rule="evenodd" clip-rule="evenodd" d="M11.5355 3.05022C11.9261 2.65969 12.5592 2.65969 12.9497 3.05022C13.3403 3.44074 13.3403 4.07391 12.9497 4.46443L9.41421 7.99996L12.9497 11.5355C13.3403 11.926 13.3403 12.5592 12.9497 12.9497C12.5592 13.3402 11.9261 13.3402 11.5355 12.9497L8 9.41418L4.46446 12.9497C4.07394 13.3402 3.44077 13.3402 3.05025 12.9497C2.65972 12.5592 2.65972 11.926 3.05025 11.5355L6.58578 7.99996L3.05025 4.46443C2.65972 4.07391 2.65972 3.44074 3.05025 3.05022C3.44077 2.65969 4.07394 2.65969 4.46446 3.05022L8 6.58575L11.5355 3.05022Z" fill="#EB4B51"/>
</svg>
