<svg xmlns="http://www.w3.org/2000/svg" xmlns:xlink="http://www.w3.org/1999/xlink"><symbol id="icon-close" viewBox="0 0 24 24">
<path fill-rule="evenodd" clip-rule="evenodd" d="M6.7951 5.30799C6.38445 4.89734 5.71864 4.89734 5.30799 5.30799C4.89734 5.71865 4.89734 6.38445 5.30799 6.7951L10.5129 12L5.30804 17.2049C4.89739 17.6156 4.89739 18.2814 5.30804 18.692C5.71869 19.1027 6.3845 19.1027 6.79515 18.692L12 13.4871L17.2049 18.692C17.6155 19.1026 18.2813 19.1026 18.692 18.692C19.1026 18.2813 19.1026 17.6155 18.692 17.2049L13.4871 12L18.692 6.79512C19.1027 6.38446 19.1027 5.71866 18.692 5.30801C18.2814 4.89735 17.6156 4.89735 17.2049 5.30801L12 10.5129L6.7951 5.30799Z" fill="currentColor"/>
</symbol><symbol id="icon-key" viewBox="0 0 16 16">
<path fill-rule="evenodd" clip-rule="evenodd" d="M9.68294 7.5634C9.88707 7.08313 10 6.55475 10 6C10 3.79086 8.20914 2 6 2C3.79086 2 2 3.79086 2 6C2 8.20914 3.79086 10 6 10C6.55379 10 7.0813 9.88746 7.5609 9.684L8.68825 10.8113C8.74736 10.8705 8.83209 10.8961 8.91406 10.8797L10.1826 10.626C10.3576 10.591 10.5119 10.7454 10.4768 10.9204L10.2698 11.9514C10.2347 12.1263 10.3888 12.2806 10.5637 12.2458L11.5975 12.0398C11.7723 12.005 11.9264 12.1591 11.8915 12.334L11.6379 13.6036C11.6215 13.6856 11.6472 13.7703 11.7063 13.8294L11.8474 13.9705C11.9239 14.047 12.0231 14.0966 12.1302 14.1119L13.1202 14.2533C13.7802 14.3476 14.3458 13.7819 14.2516 13.122L14.1101 12.132C14.0948 12.0249 14.0452 11.9257 13.9687 11.8492L9.68294 7.5634ZM5.5 7C6.32843 7 7 6.32843 7 5.5C7 4.67157 6.32843 4 5.5 4C4.67157 4 4 4.67157 4 5.5C4 6.32843 4.67157 7 5.5 7Z" fill="currentColor"/>
</symbol><symbol id="icon-negative" viewBox="0 0 16 16">
<path fill-rule="evenodd" clip-rule="evenodd" d="M11.5355 3.05022C11.9261 2.65969 12.5592 2.65969 12.9497 3.05022C13.3403 3.44074 13.3403 4.07391 12.9497 4.46443L9.41421 7.99996L12.9497 11.5355C13.3403 11.926 13.3403 12.5592 12.9497 12.9497C12.5592 13.3402 11.9261 13.3402 11.5355 12.9497L8 9.41418L4.46446 12.9497C4.07394 13.3402 3.44077 13.3402 3.05025 12.9497C2.65972 12.5592 2.65972 11.926 3.05025 11.5355L6.58578 7.99996L3.05025 4.46443C2.65972 4.07391 2.65972 3.44074 3.05025 3.05022C3.44077 2.65969 4.07394 2.65969 4.46446 3.05022L8 6.58575L11.5355 3.05022Z" fill="currentColor"/>
</symbol><symbol id="icon-positive" viewBox="0 0 16 16">
<path fill-rule="evenodd" clip-rule="evenodd" d="M13.9993 4.02216C14.3895 4.41273 14.3894 5.04567 13.999 5.43608L7.46823 11.9669C7.08965 12.3454 6.48006 12.3587 6.0854 11.9969L2.82592 9.00904C2.40536 8.62353 2.39204 7.96484 2.79668 7.56264C3.17557 7.18604 3.78357 7.17375 4.17737 7.53474L6.37815 9.55211C6.57548 9.733 6.88027 9.72638 7.06956 9.53709L12.5848 4.02187C12.9754 3.63123 13.6088 3.63136 13.9993 4.02216Z" fill="currentColor"/>
</symbol><symbol id="social-github" viewBox="0 0 24 24"><path d="M12 0C5.374 0 0 5.373 0 12c0 5.302 3.438 9.8 8.207 11.387.599.111.793-.261.793-.577v-2.234c-3.338.726-4.033-1.416-4.033-1.416-.546-1.387-1.333-1.756-1.333-1.756-1.089-.745.083-.729.083-.729 1.205.084 1.839 1.237 1.839 1.237 1.07 1.834 2.807 1.304 3.492.997.107-.775.418-1.305.762-1.604-2.665-.305-5.467-1.334-5.467-5.931 0-1.311.469-2.381 1.236-3.221-.124-.303-.535-1.524.117-3.176 0 0 1.008-.322 3.301 1.23A11.509 11.509 0 0112 5.803c1.02.005 2.047.138 3.006.404 2.291-1.552 3.297-1.23 3.297-1.23.653 1.653.242 2.874.118 3.176.77.84 1.235 1.911 1.235 3.221 0 4.609-2.807 5.624-5.479 5.921.43.372.823 1.102.823 2.222v3.293c0 .319.192.694.801.576C20.566 21.797 24 17.3 24 12c0-6.627-5.373-12-12-12z" fill="currentColor
"/></symbol><symbol id="social-telegram" viewBox="0 0 24 24"><path d="M18.384 22.779a1.19 1.19 0 001.107.145 1.16 1.16 0 00.724-.84C21.084 18 23.192 7.663 23.983 3.948a.78.78 0 00-.26-.758.8.8 0 00-.797-.14C18.733 4.602 5.82 9.447.542 11.4a.827.827 0 00-.542.799c.012.354.25.661.593.764 2.367.708 5.474 1.693 5.474 1.693s1.452 4.385 2.209 6.615c.095.28.314.5.603.576a.866.866 0 00.811-.207l3.096-2.923s3.572 2.619 5.598 4.062zm-11.01-8.677l1.679 5.538.373-3.507 10.185-9.186a.277.277 0 00.033-.377.284.284 0 00-.376-.064L7.374 14.102z" fill="currentColor"/></symbol></svg>